HIERARCHY
ROOT Hips
{
	OFFSET 0.000000 71.427986 0.000000
	CHANNELS 6 Xposition Yposition Zposition Xrotation Yrotation Zrotation
	JOINT Pelvis
	{
		OFFSET 0.000000 0.000000 0.000000
		CHANNELS 3 Xrotation Yrotation Zrotation
		JOINT LeftUpLeg
		{
			OFFSET 6.797100 -2.508499 -1.318700
			CHANNELS 3 Xrotation Yrotation Zrotation
			JOINT LeftLeg
			{
				OFFSET 0.069008 -29.241863 0.690200
				CHANNELS 3 Xrotation Yrotation Zrotation
				JOINT LeftFoot
				{
					OFFSET -0.069008 -29.568123 -0.266800
					CHANNELS 3 Xrotation Yrotation Zrotation
					JOINT LeftToeBase
					{
						OFFSET 3.145500 -8.631000 16.059900
						CHANNELS 3 Xrotation Yrotation Zrotation
						End Site
						{
							OFFSET 0.000000 18.501587 0.000000
						}
					}
				}
			}
			JOINT Left_ShortSleeve
			{
				OFFSET 0.265923 -10.480953 1.153800
				CHANNELS 3 Xrotation Yrotation Zrotation
				End Site
				{
					OFFSET 1.725763 19.823879 0.000000
				}
			}
		}
		JOINT RightUpLeg
		{
			OFFSET -6.797100 -2.508499 -1.318700
			CHANNELS 3 Xrotation Yrotation Zrotation
			JOINT RightLeg
			{
				OFFSET -0.082453 -29.241932 0.688000
				CHANNELS 3 Xrotation Yrotation Zrotation
				JOINT RightFoot
				{
					OFFSET 0.082453 -29.568058 -0.264600
					CHANNELS 3 Xrotation Yrotation Zrotation
					JOINT RightToeBase
					{
						OFFSET -3.115300 -8.682800 16.113400
						CHANNELS 3 Xrotation Yrotation Zrotation
						End Site
						{
							OFFSET 0.000000 18.567114 0.000000
						}
					}
				}
			}
			JOINT Right_ShortSleeve
			{
				OFFSET -0.265923 -10.480953 1.153800
				CHANNELS 3 Xrotation Yrotation Zrotation
				End Site
				{
					OFFSET -1.725766 19.823910 0.000000
				}
			}
		}
	}
	JOINT Spine
	{
		OFFSET 0.000000 13.368103 0.470500
		CHANNELS 3 Xrotation Yrotation Zrotation
		JOINT Spine1
		{
			OFFSET 0.147000 13.837402 0.538800
			CHANNELS 3 Xrotation Yrotation Zrotation
			JOINT Spine2
			{
				OFFSET 0.168000 16.242897 -1.435500
				CHANNELS 3 Xrotation Yrotation Zrotation
				JOINT Neck
				{
					OFFSET 0.217200 18.631500 -1.679100
					CHANNELS 3 Xrotation Yrotation Zrotation
					JOINT Head
					{
						OFFSET 0.000000 6.599396 1.385900
						CHANNELS 3 Xrotation Yrotation Zrotation
						JOINT Hat
						{
							OFFSET -0.532200 27.220596 -10.096100
							CHANNELS 3 Xrotation Yrotation Zrotation
							End Site
							{
								OFFSET 0.000000 22.029861 0.000000
							}
						}
						JOINT HairD
						{
							OFFSET -10.777400 17.437393 -1.325900
							CHANNELS 3 Xrotation Yrotation Zrotation
							JOINT HairD1
							{
								OFFSET -3.290299 -11.051193 1.062200
								CHANNELS 3 Xrotation Yrotation Zrotation
								End Site
								{
									OFFSET 0.000000 11.579437 0.000000
								}
							}
						}
						JOINT HairB
						{
							OFFSET -10.777400 17.437393 1.467900
							CHANNELS 3 Xrotation Yrotation Zrotation
							JOINT HairB1
							{
								OFFSET -1.561200 -12.956299 3.590200
								CHANNELS 3 Xrotation Yrotation Zrotation
								End Site
								{
									OFFSET 0.000000 13.534866 0.000000
								}
							}
						}
						JOINT HairA
						{
							OFFSET 9.713100 17.437393 1.467900
							CHANNELS 3 Xrotation Yrotation Zrotation
							JOINT HairA1
							{
								OFFSET 1.561200 -12.956299 3.590200
								CHANNELS 3 Xrotation Yrotation Zrotation
								End Site
								{
									OFFSET 0.000000 13.534866 0.000000
								}
							}
						}
						JOINT HairC
						{
							OFFSET 9.713100 17.437393 -1.325900
							CHANNELS 3 Xrotation Yrotation Zrotation
							JOINT HairC1
							{
								OFFSET 3.290300 -11.051193 1.062200
								CHANNELS 3 Xrotation Yrotation Zrotation
								End Site
								{
									OFFSET 0.000000 11.579437 0.000000
								}
							}
						}
					}
				}
				JOINT LeftShoulder
				{
					OFFSET 5.101800 15.108002 -2.763700
					CHANNELS 3 Xrotation Yrotation Zrotation
					JOINT LeftArm
					{
						OFFSET 9.825497 2.506317 -1.597400
						CHANNELS 3 Xrotation Yrotation Zrotation
						JOINT LeftForeArm
						{
							OFFSET 21.966244 0.000000 0.000000
							CHANNELS 3 Xrotation Yrotation Zrotation
							JOINT LeftHand
							{
								OFFSET 33.879036 0.000000 0.000000
								CHANNELS 3 Xrotation Yrotation Zrotation
								JOINT LeftHandThumb1
								{
									OFFSET 6.715286 -2.359680 3.363841
									CHANNELS 3 Xrotation Yrotation Zrotation
									JOINT LeftHandThumb2
									{
										OFFSET 2.507072 -1.447464 1.447461
										CHANNELS 3 Xrotation Yrotation Zrotation
										JOINT LeftHandThumb3
										{
											OFFSET 2.898338 -1.673355 1.673357
											CHANNELS 3 Xrotation Yrotation Zrotation
											End Site
											{
												OFFSET -0.295959 3.727692 -0.131651
											}
										}
									}
								}
								JOINT LeftHandIndex1
								{
									OFFSET 14.190811 -0.254547 3.840278
									CHANNELS 3 Xrotation Yrotation Zrotation
									JOINT LeftHandIndex2
									{
										OFFSET 3.551727 0.000000 -0.000000
										CHANNELS 3 Xrotation Yrotation Zrotation
										JOINT LeftHandIndex3
										{
											OFFSET 2.894196 0.000000 0.000000
											CHANNELS 3 Xrotation Yrotation Zrotation
											End Site
											{
												OFFSET -1.000603 2.690872 0.366626
											}
										}
									}
								}
								JOINT LeftHandMiddle1
								{
									OFFSET 13.776489 0.000000 0.000000
									CHANNELS 3 Xrotation Yrotation Zrotation
									JOINT LeftHandMiddle2
									{
										OFFSET 3.438232 0.000000 0.000000
										CHANNELS 3 Xrotation Yrotation Zrotation
										JOINT LeftHandMiddle3
										{
											OFFSET 3.691551 0.000000 0.000000
											CHANNELS 3 Xrotation Yrotation Zrotation
											End Site
											{
												OFFSET -1.082298 3.499527 0.457670
											}
										}
									}
								}
								JOINT LeftHandRing1
								{
									OFFSET 13.966164 -0.268127 -3.067488
									CHANNELS 3 Xrotation Yrotation Zrotation
									JOINT LeftHandRing2
									{
										OFFSET 3.162567 0.000000 0.000000
										CHANNELS 3 Xrotation Yrotation Zrotation
										JOINT LeftHandRing3
										{
											OFFSET 3.324348 0.000000 0.000000
											CHANNELS 3 Xrotation Yrotation Zrotation
											End Site
											{
												OFFSET -0.861900 3.184998 0.405154
											}
										}
									}
								}
								JOINT LeftHandPinky1
								{
									OFFSET 13.131393 -0.168503 -5.746925
									CHANNELS 3 Xrotation Yrotation Zrotation
									JOINT LeftHandPinky2
									{
										OFFSET 2.849182 0.000000 0.000000
										CHANNELS 3 Xrotation Yrotation Zrotation
										JOINT LeftHandPinky3
										{
											OFFSET 2.805038 0.000000 0.000000
											CHANNELS 3 Xrotation Yrotation Zrotation
											End Site
											{
												OFFSET -0.882500 2.642609 0.325652
											}
										}
									}
								}
							}
							JOINT Left_Sleeve
							{
								OFFSET 6.592125 -0.646545 0.805568
								CHANNELS 3 Xrotation Yrotation Zrotation
								End Site
								{
									OFFSET -0.000179 20.275787 -0.000000
								}
							}
						}
					}
				}
				JOINT RightShoulder
				{
					OFFSET -5.731700 15.108002 -2.763700
					CHANNELS 3 Xrotation Yrotation Zrotation
					JOINT RightArm
					{
						OFFSET -9.825497 2.506317 -1.597400
						CHANNELS 3 Xrotation Yrotation Zrotation
						JOINT RightForeArm
						{
							OFFSET -21.966242 0.000000 0.000000
							CHANNELS 3 Xrotation Yrotation Zrotation
							JOINT RightHand
							{
								OFFSET -33.879032 0.000000 0.000000
								CHANNELS 3 Xrotation Yrotation Zrotation
								JOINT RightHandThumb1
								{
									OFFSET -6.715286 -2.359680 3.363841
									CHANNELS 3 Xrotation Yrotation Zrotation
									JOINT RightHandThumb2
									{
										OFFSET -2.507072 -1.447464 1.447461
										CHANNELS 3 Xrotation Yrotation Zrotation
										JOINT RightHandThumb3
										{
											OFFSET -2.898338 -1.673355 1.673357
											CHANNELS 3 Xrotation Yrotation Zrotation
											End Site
											{
												OFFSET 0.295959 3.727692 -0.131651
											}
										}
									}
								}
								JOINT RightHandIndex1
								{
									OFFSET -14.190811 -0.254547 3.840278
									CHANNELS 3 Xrotation Yrotation Zrotation
									JOINT RightHandIndex2
									{
										OFFSET -3.551727 0.000000 -0.000000
										CHANNELS 3 Xrotation Yrotation Zrotation
										JOINT RightHandIndex3
										{
											OFFSET -2.894196 0.000000 0.000000
											CHANNELS 3 Xrotation Yrotation Zrotation
											End Site
											{
												OFFSET 1.000603 2.690872 0.366626
											}
										}
									}
								}
								JOINT RightHandMiddle1
								{
									OFFSET -13.776489 0.000000 0.000000
									CHANNELS 3 Xrotation Yrotation Zrotation
									JOINT RightHandMiddle2
									{
										OFFSET -3.438232 0.000000 0.000000
										CHANNELS 3 Xrotation Yrotation Zrotation
										JOINT RightHandMiddle3
										{
											OFFSET -3.691551 0.000000 0.000000
											CHANNELS 3 Xrotation Yrotation Zrotation
											End Site
											{
												OFFSET 1.082298 3.499527 0.457670
											}
										}
									}
								}
								JOINT RightHandRing1
								{
									OFFSET -13.966164 -0.268127 -3.067488
									CHANNELS 3 Xrotation Yrotation Zrotation
									JOINT RightHandRing2
									{
										OFFSET -3.162567 0.000000 0.000000
										CHANNELS 3 Xrotation Yrotation Zrotation
										JOINT RightHandRing3
										{
											OFFSET -3.324348 0.000000 0.000000
											CHANNELS 3 Xrotation Yrotation Zrotation
											End Site
											{
												OFFSET 0.861900 3.184998 0.405154
											}
										}
									}
								}
								JOINT RightHandPinky1
								{
									OFFSET -13.131393 -0.168503 -5.746925
									CHANNELS 3 Xrotation Yrotation Zrotation
									JOINT RightHandPinky2
									{
										OFFSET -2.849182 0.000000 0.000000
										CHANNELS 3 Xrotation Yrotation Zrotation
										JOINT RightHandPinky3
										{
											OFFSET -2.805038 0.000000 0.000000
											CHANNELS 3 Xrotation Yrotation Zrotation
											End Site
											{
												OFFSET 0.882500 2.642609 0.325652
											}
										}
									}
								}
							}
							JOINT Right_Sleeve
							{
								OFFSET -6.592125 -0.646545 0.805568
								CHANNELS 3 Xrotation Yrotation Zrotation
								End Site
								{
									OFFSET 0.000179 20.275787 -0.000000
								}
							}
						}
					}
				}
				JOINT Bind_Right_JacketString
				{
					OFFSET -3.534800 11.969597 7.200700
					CHANNELS 3 Xrotation Yrotation Zrotation
					JOINT Bind_Right_JacketString1
					{
						OFFSET -0.319900 -6.102600 2.794100
						CHANNELS 3 Xrotation Yrotation Zrotation
						End Site
						{
							OFFSET 0.000000 6.719452 0.000000
						}
					}
				}
				JOINT Bind_Left_JacketString
				{
					OFFSET 2.904800 11.969597 7.200700
					CHANNELS 3 Xrotation Yrotation Zrotation
					JOINT Bind_Left_JacketString1
					{
						OFFSET 0.364800 -5.904503 3.186800
						CHANNELS 3 Xrotation Yrotation Zrotation
						End Site
						{
							OFFSET 0.000000 6.719513 0.000000
						}
					}
				}
				JOINT HairE
				{
					OFFSET 5.915200 17.612701 -11.592200
					CHANNELS 3 Xrotation Yrotation Zrotation
					JOINT HairE1
					{
						OFFSET 0.289200 -7.171898 -1.284500
						CHANNELS 3 Xrotation Yrotation Zrotation
						End Site
						{
							OFFSET 0.000000 7.291756 0.000000
						}
					}
				}
				JOINT HairF
				{
					OFFSET -0.864800 17.612701 -11.592200
					CHANNELS 3 Xrotation Yrotation Zrotation
					JOINT HairF1
					{
						OFFSET 0.000000 -14.087097 -2.127501
						CHANNELS 3 Xrotation Yrotation Zrotation
						End Site
						{
							OFFSET 0.000000 14.246841 0.000000
						}
					}
				}
				JOINT HairG
				{
					OFFSET -8.087700 17.612701 -11.592200
					CHANNELS 3 Xrotation Yrotation Zrotation
					JOINT HairG1
					{
						OFFSET -0.293600 -6.081398 -0.910100
						CHANNELS 3 Xrotation Yrotation Zrotation
						End Site
						{
							OFFSET 0.000000 6.156120 0.000000
						}
					}
				}
			}
		}
	}
	JOINT Pouch
	{
		OFFSET 0.000000 4.394501 10.847300
		CHANNELS 3 Xrotation Yrotation Zrotation
		End Site
		{
			OFFSET 0.000000 21.880577 0.000000
		}
	}
	JOINT Bag
	{
		OFFSET -13.229000 4.813004 -0.593300
		CHANNELS 3 Xrotation Yrotation Zrotation
		End Site
		{
			OFFSET 0.000000 21.880577 0.000000
		}
	}
	JOINT OccupyGuyFacialAnim_Joint
	{
		OFFSET 1.000000 -70.206398 -1.655000
		CHANNELS 3 Xrotation Yrotation Zrotation
		End Site
		{
			OFFSET 0.000000 21.880577 0.000000
		}
	}
}
MOTION
Frames: 4
Frame Time: 0.033333
-35.658783 60.883728 3.021492 -4.830769 -5.770159 -20.439268 0.000000 0.000000 0.000002 -35.472253 13.676437 38.523063 73.889068 6.563821 0.954506 -41.600210 4.971474 -9.381438 0.000000 0.000002 -0.000000 0.000000 0.000000 -0.000000 -10.562248 -19.038568 -19.284802 8.035986 -10.650521 4.791561 -6.208313 -30.447621 8.449312 -0.000000 -0.000001 0.000000 0.000000 0.000000 -0.000002 2.827042 1.010380 -0.240311 5.491219 1.711093 -1.480379 5.519510 1.641790 -1.459927 1.276975 0.595837 4.723624 -11.773573 6.150435 23.000331 0.000000 -0.000000 -0.000000 0.000000 -0.000000 -0.000000 0.000000 -0.000000 -0.000000 0.000000 -0.000000 -0.000000 0.000000 -0.000000 0.000000 0.000000 -0.000000 -0.000000 0.000000 -0.000000 0.000000 0.000000 -0.000000 -0.000000 0.000000 -0.000000 -0.000000 0.511791 -2.088671 -8.557962 -7.608351 20.636428 -26.369945 0.000001 -41.196184 0.000011 17.214266 -3.736662 -14.049921 -1.540038 3.690180 6.142366 10.839409 13.529772 3.254087 -0.000001 0.000002 -0.000001 -0.123654 0.713252 -18.070850 0.902916 3.413669 -29.622664 0.000002 -0.000001 -0.000000 1.953430 8.976591 -13.024554 0.966970 3.523769 -30.681490 0.000001 0.000000 0.000001 3.626949 13.817142 -15.120712 0.984385 3.552912 -30.963700 -0.000001 0.000000 -0.000002 7.060778 30.639733 -12.088071 1.012948 -0.482147 -31.670887 -0.000000 0.000001 -0.000002 0.000001 0.000001 0.000002 0.132000 6.429512 25.979716 21.124175 -12.700397 36.652609 -0.000009 46.038996 0.000013 -14.853179 -0.348367 6.368311 -1.530744 -5.270226 -6.754307 5.899129 -12.713334 -0.307236 0.000000 -0.000001 0.000001 -1.436069 1.986195 23.213419 0.759623 -3.165116 26.984993 -0.000001 0.000000 0.000000 0.613396 -2.862860 23.215432 0.766607 -3.178778 27.111130 0.000002 -0.000001 -0.000001 2.137004 -6.354473 23.329054 0.775520 -3.196114 27.271472 0.000001 -0.000001 -0.000000 3.506446 -9.422182 23.404828 0.797290 -3.237917 27.659281 -0.000001 0.000001 -0.000001 -0.000001 0.000003 0.000004 0.000000 0.000000 0.000001 0.000000 -0.000000 0.000001 0.000000 0.000000 0.000001 0.000000 0.000000 0.000001 0.000000 0.000000 0.000001 0.000000 -0.000000 0.000001 0.000000 0.000000 0.000001 0.000000 0.000000 0.000001 0.000000 0.000000 0.000001 0.000000 -0.000000 0.000001 0.000000 0.000000 0.000002 0.000000 0.000000 0.000002 0.000000 0.000000 0.000002 
-36.503662 60.253029 3.072086 -4.732296 -6.093347 -20.748216 -0.000000 0.000000 0.000000 -36.562781 12.634363 39.551317 75.696138 6.439887 1.797272 -42.025399 5.500427 -10.506993 0.000000 0.000002 0.000000 -0.000002 0.000001 0.000001 -11.075098 -18.007988 -19.305472 6.996331 -10.455198 2.565272 -9.646274 -30.414515 5.773842 0.000002 0.000003 0.000001 0.000000 0.000000 -0.000000 2.880956 1.150766 -0.463024 5.563364 1.935375 -1.795332 5.595738 1.869423 -1.773686 1.276456 0.628483 4.660814 -12.851553 5.865813 23.849289 0.000000 -0.000000 -0.000000 0.000000 -0.000000 -0.000000 0.000000 -0.000000 -0.000000 0.000000 -0.000000 -0.000000 0.000000 -0.000000 -0.000000 0.000000 -0.000000 -0.000000 0.000000 -0.000000 -0.000000 0.000000 -0.000000 -0.000000 0.000000 -0.000000 -0.000000 0.501805 -1.888860 -8.320873 -10.681673 21.580690 -23.661756 0.000003 -39.583419 0.000000 14.207272 -2.792496 -13.554997 -1.540039 3.690181 6.142371 10.126271 12.864691 3.013257 0.000001 0.000003 -0.000000 -0.125174 0.646665 -17.346898 0.862704 3.342105 -28.940430 0.000004 -0.000000 -0.000000 1.847986 8.918228 -12.346509 0.922076 3.447096 -29.942935 0.000001 0.000001 0.000001 3.471553 13.800525 -14.443803 0.937597 3.473886 -30.200201 -0.000002 0.000001 -0.000002 6.658762 30.651553 -11.293663 0.962774 -0.564777 -30.870321 -0.000001 -0.000001 -0.000001 0.000002 0.000002 -0.000002 0.101860 6.680133 25.702562 20.226912 -12.189634 36.642251 0.000002 45.955432 -0.000003 -14.881184 -0.044271 6.429936 -1.537754 -5.228538 -6.749171 5.868544 -12.612108 -0.305288 -0.000000 0.000000 0.000004 -1.485334 2.142435 23.056173 0.747215 -3.140672 26.759385 -0.000001 0.000000 0.000000 0.551332 -2.718127 23.047623 0.753863 -3.153787 26.880326 -0.000001 -0.000000 0.000001 2.081661 -6.257458 23.152992 0.762485 -3.170739 27.036716 -0.000001 -0.000000 -0.000001 3.427435 -9.299758 23.224366 0.784171 -3.212800 27.426193 -0.000003 0.000001 0.000001 -0.000002 -0.000000 -0.000003 0.000000 -0.000001 -0.000002 -0.000000 -0.000000 -0.000001 0.000000 -0.000001 -0.000001 0.000000 -0.000001 -0.000001 0.000000 -0.000001 -0.000002 -0.000000 -0.000000 -0.000001 0.000000 -0.000001 -0.000001 0.000000 -0.000001 -0.000001 0.000000 -0.000001 -0.000002 -0.000000 -0.000000 -0.000001 -0.000000 0.000000 0.000000 -0.000000 0.000000 0.000000 -0.000000 0.000000 0.000000 
-37.397163 59.630096 3.068495 -4.718129 -6.352490 -20.897095 -0.000000 0.000000 -0.000002 -37.512878 11.493312 40.218742 77.543329 6.483688 2.687321 -42.361520 6.115078 -11.268845 -0.000000 -0.000001 -0.000000 0.000003 0.000001 0.000001 -11.607869 -17.897946 -19.891971 6.393764 -10.364687 1.697697 -11.539748 -30.322177 3.752582 0.000003 0.000001 -0.000000 -0.000003 0.000000 -0.000000 3.018283 1.300455 -0.616380 5.795081 2.179252 -1.995253 5.830831 2.115238 -1.971631 1.297385 0.622580 4.492053 -13.958747 5.214730 24.046670 0.000000 0.000000 0.000000 0.000000 0.000000 0.000000 0.000000 0.000000 0.000000 0.000000 0.000000 0.000000 -0.000000 0.000000 0.000000 0.000000 0.000000 0.000000 -0.000000 0.000000 0.000000 0.000000 0.000000 0.000000 0.000000 0.000000 0.000000 0.496620 -1.788816 -8.222939 -13.472090 22.018858 -22.022888 0.000007 -37.929171 0.000017 11.977810 -1.997434 -11.731062 -1.540044 3.690177 6.142369 9.378370 12.167202 2.743163 -0.000001 -0.000001 -0.000004 -0.126185 0.576578 -16.584246 0.821287 3.266205 -28.221780 -0.000000 0.000001 0.000000 1.737668 8.855413 -11.632435 0.875840 3.365718 -29.164942 0.000002 0.000000 0.000002 3.307811 13.781167 -13.730769 0.889452 3.389962 -29.395976 -0.000001 0.000000 -0.000003 6.234700 30.658267 -10.456514 0.911151 -0.652587 -30.026884 -0.000001 -0.000001 -0.000001 0.000001 0.000003 0.000000 0.083729 6.885644 25.287041 19.326684 -11.595890 36.264773 0.000000 45.819453 0.000005 -14.509542 0.356535 6.476803 -1.552564 -5.147803 -6.739000 5.808886 -12.415955 -0.302519 -0.000000 0.000000 -0.000000 -1.578435 2.446036 22.751884 0.723452 -3.093150 26.322256 -0.000000 0.000001 0.000000 0.433433 -2.436663 22.723001 0.729439 -3.105230 26.433069 0.000000 0.000001 -0.000001 1.976038 -6.068677 22.812181 0.737528 -3.121417 26.581968 -0.000001 -0.000000 0.000001 3.276550 -9.061377 22.875313 0.759048 -3.164002 26.974533 -0.000002 0.000001 0.000001 0.000001 -0.000000 0.000001 0.000001 -0.000000 0.000001 0.000001 0.000000 0.000001 0.000001 -0.000000 -0.000001 0.000001 -0.000000 -0.000001 0.000001 -0.000000 0.000001 0.000001 0.000000 0.000001 0.000001 -0.000000 -0.000001 0.000001 -0.000000 -0.000001 0.000001 -0.000000 0.000001 0.000001 0.000000 0.000001 -0.000000 0.000000 -0.000002 -0.000000 0.000000 -0.000002 -0.000000 0.000000 -0.000002 
-38.389923 59.065163 3.046334 -4.741722 -6.565957 -20.882885 -0.000000 0.000001 0.000001 -38.222463 10.423074 40.848004 79.033608 6.478655 3.480903 -42.429128 6.644087 -12.178721 0.000000 0.000002 0.000000 0.000000 0.000001 0.000001 -12.492542 -18.064923 -20.854893 6.822507 -10.465771 1.571590 -12.511899 -30.324448 2.990463 -0.000001 0.000001 0.000002 -0.000000 0.000003 0.000001 3.186640 1.441767 -0.702879 6.072771 2.410211 -2.112040 6.112201 2.343235 -2.086716 1.389188 0.614941 4.346516 -14.843719 4.624151 23.944442 0.000000 0.000000 0.000000 0.000000 0.000000 0.000000 0.000000 0.000000 0.000000 0.000000 0.000000 -0.000000 -0.000000 0.000000 -0.000000 0.000000 0.000000 -0.000000 -0.000000 0.000000 -0.000000 0.000000 0.000000 0.000000 0.000000 0.000000 0.000000 0.493032 -1.778330 -8.235828 -15.075725 22.115927 -21.725759 0.000008 -36.510687 0.000020 10.294045 -0.978976 -8.914050 -1.540041 3.690181 6.142369 8.610343 11.451459 2.447158 0.000000 0.000001 -0.000000 -0.126570 0.504372 -15.797603 0.779564 3.187378 -27.480646 -0.000002 -0.000000 -0.000002 1.624750 8.789199 -10.896198 0.829331 3.281129 -28.362618 -0.000000 -0.000000 0.000001 3.138920 13.759186 -12.995469 0.841045 3.302709 -28.566641 0.000002 -0.000000 -0.000000 5.796957 30.659012 -9.593060 0.859267 -0.743942 -29.156913 0.000001 -0.000001 0.000003 0.000002 0.000002 0.000000 0.077804 7.027318 24.877371 18.513912 -11.035438 35.584425 -0.000012 45.420174 0.000002 -14.183469 0.660486 6.608082 -1.573577 -5.034395 -6.727004 5.725183 -12.141344 -0.298466 0.000000 0.000000 0.000002 -1.703561 2.873066 22.326637 0.690775 -3.026312 25.710162 -0.000001 0.000000 0.000002 0.273572 -2.040371 22.269617 0.695894 -3.036895 25.806782 -0.000001 -0.000000 -0.000001 1.831739 -5.802560 22.335825 0.703232 -3.052027 25.945104 -0.000002 -0.000001 -0.000000 3.070170 -8.725071 22.388035 0.724520 -3.095325 26.342144 -0.000002 0.000001 -0.000001 -0.000001 0.000001 -0.000001 0.000000 -0.000000 -0.000002 0.000000 0.000000 -0.000002 0.000000 -0.000000 0.000000 0.000000 -0.000000 0.000000 0.000000 -0.000000 -0.000002 0.000000 0.000000 -0.000002 0.000000 -0.000000 0.000000 0.000000 -0.000000 0.000000 0.000000 -0.000000 -0.000002 0.000000 0.000000 -0.000002 -0.000000 0.000001 0.000001 -0.000000 0.000001 0.000001 -0.000000 0.000001 0.000001 
